<?xml version="1.0" encoding="UTF-8"?>
<svg version="1.1" xmlns="http://www.w3.org/2000/svg" width="494" height="588">
<path d="M0 0 C5.86249906 4.25657149 9.21018593 8.78029404 10.55859375 15.984375 C11.3231093 28.77830875 4.56427402 38.92731494 -3.52734375 48.26171875 C-4.34332031 49.16535156 -5.15929687 50.06898437 -6 51 C-6.82628906 51.93457031 -7.65257812 52.86914062 -8.50390625 53.83203125 C-15.00362858 61.08486406 -21.87764951 67.97753301 -28.75 74.875 C-30.0807959 76.21280518 -30.0807959 76.21280518 -31.43847656 77.57763672 C-36.46518147 82.59210891 -41.58930473 87.40357049 -47 92 C-48.12916376 92.97365977 -49.25807919 93.94760763 -50.38671875 94.921875 C-53.32139497 97.439255 -56.26038415 99.95159358 -59.20068359 102.46240234 C-60.3608226 103.45379386 -61.52007095 104.44622904 -62.67822266 105.43994141 C-70.35469778 112.0260475 -78.18650967 118.3698662 -86.17236328 124.57666016 C-89.41543123 127.10231954 -92.64424067 129.64612885 -95.875 132.1875 C-97.05983644 133.11856517 -98.24472654 134.04956206 -99.4296875 134.98046875 C-100.27789062 135.64691406 -101.12609375 136.31335938 -102 137 C-98.24141582 148.39939017 -92.44989765 157.12565297 -82.19921875 163.5625 C-73.82783194 167.32400226 -65.68166222 168.53248342 -56.5625 168.4375 C-55.52407959 168.42992676 -54.48565918 168.42235352 -53.41577148 168.41455078 C-23.86046901 167.79613514 3.60656049 155.03337658 28.08300781 139.22412109 C68.65184874 113.31834315 68.65184874 113.31834315 82 115 C87.20721124 116.64895023 89.96822303 118.45233454 93 123 C95.92002951 128.84005902 93.98607046 135.88013551 92.0625 141.75 C89.05178282 149.53257811 84.77812496 156.22356309 80 163 C79.51466797 163.69641602 79.02933594 164.39283203 78.52929688 165.11035156 C65.80811154 183.30759708 51.54506946 200.19463201 36.87890625 216.83984375 C35.37280865 218.57138631 33.88382608 220.31392751 32.40234375 222.06640625 C26.43738048 229.10869751 20.3300337 235.97162737 13.98413086 242.67407227 C11.104946 245.71925807 8.28348667 248.79670589 5.53515625 251.9609375 C2.037662 255.98565075 -1.58730654 259.87584018 -5.25 263.75 C-10.65741083 269.49349852 -16.02179494 275.27090506 -21.34375 281.09375 C-48.37305599 310.66699067 -48.37305599 310.66699067 -58.91015625 320.84765625 C-60.76912333 322.76221861 -62.50493557 324.72532634 -64.24609375 326.74609375 C-68.59569922 331.7535546 -73.30670062 336.3582964 -78.0390625 341 C-81.25876938 344.18241298 -84.38002703 347.38386892 -87.32421875 350.82421875 C-92.3087078 356.61233817 -97.82553091 361.88195979 -103.26147461 367.2409668 C-104.6620081 368.62345034 -106.0595637 370.00894861 -107.45703125 371.39453125 C-108.6941687 372.61426636 -108.6941687 372.61426636 -109.95629883 373.85864258 C-112.14122979 376.02422475 -112.14122979 376.02422475 -114 379 C-114.66 379 -115.32 379 -116 379 C-116.20767502 379.5329921 -116.41535004 380.06598419 -116.62931824 380.61512756 C-118.55183941 383.96015475 -121.20693663 386.46810784 -123.9309082 389.15795898 C-124.53764374 389.76498657 -125.14437927 390.37201416 -125.76950073 390.99743652 C-127.77522303 393.00176638 -129.7879387 394.99891659 -131.80078125 396.99609375 C-133.1988568 398.3904366 -134.59648954 399.78522358 -135.99369812 401.18043518 C-139.67483094 404.85393304 -143.36192456 408.52139105 -147.05029297 412.18762207 C-150.79166371 415.90860222 -154.52744909 419.63518021 -158.26367188 423.36132812 C-164.30602479 429.38610694 -170.35176934 435.40745669 -176.40205383 441.42427063 C-177.93514747 442.94906743 -179.4675954 444.4745108 -181 446 C-181.91730392 446.9121376 -182.83460785 447.82427521 -183.77970886 448.76405334 C-185.78126891 450.77972661 -187.65503184 452.84173536 -189.5 455 C-193.5998929 459.79610113 -198.08893894 464.11738825 -202.75708008 468.35083008 C-207.30223031 472.47335992 -211.67589212 476.52689729 -215.52453613 481.32287598 C-217.07860401 483.08934727 -218.72158419 484.54231224 -220.52148438 486.05664062 C-225.71448071 490.5486767 -230.51264428 495.40646991 -235.34375 500.28125 C-236.32176419 501.26368378 -237.30008251 502.24581488 -238.27868652 503.22766113 C-241.35531395 506.31560571 -244.42796436 509.40748814 -247.5 512.5 C-251.06553903 516.08930463 -254.63277928 519.67688508 -258.20429993 523.26023865 C-259.61758629 524.67991157 -261.02777111 526.10266999 -262.43786621 527.5255127 C-266.91403867 532.01859271 -271.43085044 536.38151286 -276.26574707 540.48840332 C-279.33560817 543.16413289 -282.15284777 546.09159269 -285 549 C-289.29241971 553.34264347 -293.61534573 557.54675785 -298.27734375 561.49609375 C-300.10430507 563.09105998 -301.80059287 564.77017842 -303.5 566.5 C-307.15564967 570.21380774 -311.04189872 573.61396804 -315 577 C-316.0209375 577.87785156 -316.0209375 577.87785156 -317.0625 578.7734375 C-318.70601037 580.18500084 -320.35266531 581.59290162 -322 583 C-322.99 582.34 -323.98 581.68 -325 581 C-323.49993609 577.55220914 -321.49590738 575.17639467 -318.9375 572.4375 C-315.72708915 568.94081047 -312.65543761 565.39200607 -309.6875 561.6875 C-305.27745248 556.23479676 -300.56231202 551.12013668 -295.78125 545.99609375 C-293.0450396 543.06143494 -290.39823878 540.05796386 -287.7734375 537.0234375 C-285.54861908 534.48498829 -283.27496681 531.99358224 -281 529.5 C-278.15475772 526.38092989 -275.3280042 523.25244609 -272.5625 520.0625 C-269.17595159 516.16597725 -265.68662005 512.36647172 -262.19213867 508.56713867 C-257.05763726 502.98272032 -251.98357959 497.34454196 -246.93359375 491.68359375 C-241.70718977 485.84118636 -236.37272242 480.10752429 -231.01293945 474.38793945 C-227.58833147 470.72577568 -224.23741991 467.0210803 -220.96875 463.21875 C-217.43236409 459.23329921 -213.75799515 455.37446687 -210.11328125 451.48828125 C-207.19121984 448.36684678 -204.28779975 445.24295072 -201.5 442 C-197.55568818 437.41498779 -193.38731635 433.03827503 -189.25170898 428.62670898 C-185.98426737 425.1374816 -182.74416621 421.63055452 -179.5625 418.0625 C-174.9682014 412.91860306 -170.23601675 407.90789903 -165.51025391 402.88525391 C-161.40162592 398.51241874 -157.35856529 394.09010612 -153.36328125 389.61328125 C-149.72357784 385.58855136 -146.00723881 381.636111 -142.29931641 377.67431641 C-137.72181625 372.78087124 -133.18041505 367.85647774 -128.66015625 362.91015625 C-126.81714028 360.89393467 -124.97138637 358.88060483 -123.12109375 356.87109375 C-117.33525748 350.59127724 -117.33525748 350.59127724 -111.6875 344.1875 C-108.22946004 340.19358944 -104.6128444 336.35319995 -101 332.5 C-96.79724892 328.01706551 -92.63161651 323.52072959 -88.6171875 318.8671875 C-84.2274909 313.79889046 -79.71663915 308.8337283 -75.14453125 303.9296875 C-65.60804674 293.69890457 -56.62791156 283.14982873 -48.05883789 272.09667969 C-44.38735087 267.40063737 -40.44737965 263.00868907 -36.39453125 258.63671875 C-33.23514772 255.15778909 -30.29061472 251.52714566 -27.33984375 247.87109375 C-24.81266144 244.77012714 -22.22366446 241.72841256 -19.625 238.6875 C-14.87526217 233.10970467 -10.32822647 227.39330144 -5.828125 221.61328125 C-3.37223466 218.46247384 -0.87380229 215.34791062 1.63452148 212.23876953 C6.14896978 206.63917874 10.55478356 201.00122766 14.734375 195.14453125 C16.59651726 192.56000622 18.48421715 190.00099253 20.390625 187.44921875 C21.00437988 186.62518555 21.61813477 185.80115234 22.25048828 184.95214844 C23.46420509 183.32395319 24.68112538 181.69813902 25.90185547 180.07519531 C29.98049755 174.5871494 33.58305475 168.92161442 37 163 C33.87321021 163.67494976 31.18048739 164.74890706 28.2890625 166.109375 C27.38188477 166.53178467 26.47470703 166.95419434 25.54003906 167.3894043 C24.57807617 167.83840088 23.61611328 168.28739746 22.625 168.75 C-9.53243686 183.48666202 -50.20666792 196.80207186 -85.2421875 184.8984375 C-103.42712182 177.86934817 -112.45656848 163.70122204 -121 147 C-121.51433594 146.00806641 -121.51433594 146.00806641 -122.0390625 144.99609375 C-127.01961566 135.29818739 -127.01961566 135.29818739 -126.96630859 131.77026367 C-125.4932803 127.54730965 -122.56637699 125.05508532 -119.40234375 121.9765625 C-118.73465469 121.31216156 -118.06696564 120.64776062 -117.37904358 119.96322632 C-115.2410485 117.84096816 -113.08931498 115.73323453 -110.9375 113.625 C-109.51541417 112.21441003 -108.09418061 110.80296029 -106.67382812 109.390625 C-105.29242888 108.02266737 -103.91028997 106.65545619 -102.52734375 105.2890625 C-101.89368393 104.66278961 -101.26002411 104.03651672 -100.60716248 103.39126587 C-96.21318151 99.08871931 -91.65520335 95.01676556 -87 91 C-85.77045951 89.91709096 -84.54123714 88.83382049 -83.3125 87.75 C-76.57854278 82 -76.57854278 82 -73 82 C-72.7525 81.2575 -72.505 80.515 -72.25 79.75 C-69.72045856 74.18500883 -65.63330914 72.10723019 -60.25 69.5625 C-56.14477806 67.5960572 -52.17330201 65.58514586 -48.375 63.0625 C-45 61 -45 61 -41 61 C-39.23172861 59.81399472 -39.23172861 59.81399472 -37.64453125 58.10546875 C-37.02626465 57.48478516 -36.40799805 56.86410156 -35.77099609 56.22460938 C-35.12469238 55.55236328 -34.47838867 54.88011719 -33.8125 54.1875 C-33.14557129 53.50623047 -32.47864258 52.82496094 -31.79150391 52.12304688 C-26.51064736 46.66936229 -21.61892952 41.02860281 -17 35 C-16.46632813 34.35675781 -15.93265625 33.71351562 -15.3828125 33.05078125 C-11.91491306 28.69141613 -11 25.45508983 -11 20 C-12.51784081 17.15404848 -14.20379646 16.92553591 -17.25 15.8125 C-30.48677441 12.94453221 -42.94306822 19.06127874 -54 26 C-72.74716143 38.88833158 -90.20218158 55.9861815 -104 74 C-105.06069174 75.33477229 -106.12336516 76.66797107 -107.1875 78 C-115.12665982 87.99439117 -122.46742238 98.29576392 -129.57617188 108.89306641 C-131.53358323 111.78957875 -133.54875654 114.64236765 -135.5625 117.5 C-141.32233374 125.82207443 -146.67420052 134.39565656 -152 143 C-152.64533691 144.04140137 -153.29067383 145.08280273 -153.95556641 146.15576172 C-163.20699097 161.128318 -172.0509862 176.25640531 -180.51953125 191.6875 C-183.60796746 197.31362249 -186.78719184 202.88177174 -190 208.4375 C-194.98630911 217.0864461 -199.71059031 225.86754759 -204.39785767 234.68069458 C-209.23054719 243.76296385 -214.19671134 252.75883744 -219.29663086 261.69433594 C-222.44125937 267.21204124 -225.50799086 272.76317456 -228.51245117 278.35839844 C-240.63056928 300.89614904 -253.89091408 324.67952397 -272 343 C-272.66257812 343.7115625 -273.32515625 344.423125 -274.0078125 345.15625 C-281.65872903 353.19721326 -289.45885504 358.7477926 -300.8125 359.4375 C-307.61429728 359.2514326 -313.12644578 356.78969564 -318.0078125 352.05078125 C-341.81081619 323.35322052 -338.58247871 273.34393795 -340.48828125 238.1796875 C-342.0614586 188.05717346 -342.0614586 188.05717346 -365.765625 145.80078125 C-375.29595069 138.11987191 -388.10188396 136.7950354 -400 136 C-399.33195612 130.91607282 -395.82183717 128.93607001 -391.96875 125.96875 C-382.49645759 119.68712451 -372.28057653 116.97584239 -361 118 C-351.28689561 120.09472169 -344.4810229 124.99563615 -338.83984375 133.10546875 C-333.78832258 141.19677108 -330.49565355 149.80055977 -328 159 C-327.8251709 159.63760254 -327.6503418 160.27520508 -327.47021484 160.93212891 C-322.3903983 180.06594585 -320.62211011 200.03415057 -318.77734375 219.69140625 C-318.61855492 221.37925232 -318.61855492 221.37925232 -318.45655823 223.10119629 C-317.92971155 228.73587204 -317.41720296 234.37138089 -316.92602539 240.00927734 C-314.69375147 275.53666944 -314.69375147 275.53666944 -300 307 C-296.88144647 309.59987519 -294.03924394 311.07666331 -289.921875 310.921875 C-285.27512437 309.96414777 -281.83038351 307.78573346 -278 305 C-276.6808418 304.30570621 -275.35350594 303.62469505 -274 303 C-274 302.34 -274 301.68 -274 301 C-272.36353748 299.3036669 -270.69163565 297.64131788 -269 296 C-257.37062134 282.90049234 -248.09721953 267.9102856 -239 253 C-238.6479248 252.42556152 -238.29584961 251.85112305 -237.93310547 251.25927734 C-231.3841907 240.5533063 -225.16725775 229.65303849 -218.90625 218.77734375 C-209.59878817 202.61624745 -200.19645972 186.51396104 -190.54492188 170.55566406 C-189.48725124 168.80602813 -188.43134663 167.05532374 -187.37695312 165.30371094 C-167.35394358 132.04495472 -146.37269426 99.2717574 -122 69 C-121.21882813 68.02417969 -120.43765625 67.04835938 -119.6328125 66.04296875 C-115.27534158 60.65267168 -110.7691542 55.43662441 -106.09765625 50.31640625 C-104.29408387 48.32475183 -102.54893904 46.29978143 -100.8125 44.25 C-78.8821167 19.23723564 -35.61616505 -21.01574957 0 0 Z " fill="#1C1A20" transform="translate(400,5)"/>
<path d="M0 0 C-1.4519012 5.4509975 -4.05559879 9.37292003 -7.3125 13.875 C-7.8386792 14.61097412 -8.3648584 15.34694824 -8.90698242 16.10522461 C-16.13464926 26.09989088 -23.93650217 35.69931278 -32.1484375 44.90234375 C-33.67325651 46.62982858 -35.17319437 48.37229269 -36.6640625 50.12890625 C-42.25904259 56.71838576 -47.94472127 63.18945035 -53.83935547 69.51293945 C-56.55145051 72.42325026 -59.21598217 75.36118466 -61.8125 78.375 C-64.49694128 81.48193204 -67.34485281 84.36270277 -70.26953125 87.2421875 C-72.60982049 89.61945648 -74.76545488 92.13636554 -76.9453125 94.66015625 C-85.42802891 104.32013178 -94.34952247 113.61361632 -103.13085938 123.00146484 C-104.42164384 124.38160612 -105.71198043 125.76216637 -107.00195312 127.14306641 C-109.02121985 129.30456897 -111.04170533 131.46492595 -113.0625 133.625 C-113.68165283 134.28798096 -114.30080566 134.95096191 -114.9387207 135.6340332 C-118.23378111 139.15276269 -121.56857631 142.61398267 -125 146 C-123.28468421 142.03333224 -120.66487372 138.79765768 -118 135.4375 C-117.51160645 134.81834717 -117.02321289 134.19919434 -116.52001953 133.5612793 C-112.67193253 128.73346463 -108.59183903 124.1645232 -104.39453125 119.63671875 C-101.23514772 116.15778909 -98.29061472 112.52714566 -95.33984375 108.87109375 C-92.81266144 105.77012714 -90.22366446 102.72841256 -87.625 99.6875 C-82.87526217 94.10970467 -78.32822647 88.39330144 -73.828125 82.61328125 C-71.37223466 79.46247384 -68.87380229 76.34791062 -66.36547852 73.23876953 C-61.85103022 67.63917874 -57.44521644 62.00122766 -53.265625 56.14453125 C-51.40348274 53.56000622 -49.51578285 51.00099253 -47.609375 48.44921875 C-46.99562012 47.62518555 -46.38186523 46.80115234 -45.74951172 45.95214844 C-44.53579491 44.32395319 -43.31887462 42.69813902 -42.09814453 41.07519531 C-38.01950245 35.5871494 -34.41694525 29.92161442 -31 24 C-34.12678979 24.67494976 -36.81951261 25.74890706 -39.7109375 27.109375 C-40.61980713 27.53234863 -41.52867676 27.95532227 -42.46508789 28.39111328 C-43.42535889 28.8395459 -44.38562988 29.28797852 -45.375 29.75 C-68.54013749 40.41063463 -68.54013749 40.41063463 -76 40 C-73.02220278 38.01480185 -70.08895901 36.55300347 -66.85546875 35.0234375 C-65.61573947 34.43381914 -64.37616173 33.84388208 -63.13671875 33.25366211 C-62.49138184 32.9470163 -61.84604492 32.64037048 -61.18115234 32.32443237 C-50.55746671 27.26513951 -40.01500931 22.20721931 -30 16 C-29.175 15.49017578 -28.35 14.98035156 -27.5 14.45507812 C-21.88164221 10.97953113 -21.88164221 10.97953113 -16.27929688 7.47827148 C-4.33566365 0 -4.33566365 0 0 0 Z " fill="#DF757C" transform="translate(468,144)"/>
<path d="M0 0 C0 4 0 4 -1.328125 5.53515625 C-2.27945313 6.29119141 -2.27945313 6.29119141 -3.25 7.0625 C-6.88385558 10.05546395 -10.37044846 13.16518994 -13.8125 16.375 C-18.51338674 20.72357983 -23.37253814 24.81274823 -28.36328125 28.828125 C-30.92420028 30.93756349 -33.37123455 33.12887648 -35.8125 35.375 C-41.36256344 40.4252947 -47.24594924 44.99546153 -53.17675781 49.58398438 C-55.58345399 51.45313781 -57.97307722 53.34347711 -60.36328125 55.23364258 C-65.46039965 59.25920768 -70.58145531 63.25398702 -75.75 67.1875 C-76.71421875 67.92355469 -77.6784375 68.65960938 -78.671875 69.41796875 C-81 71 -81 71 -83 71 C-83.495 71.99 -83.495 71.99 -84 73 C-83.76187869 67.40050113 -80.18125889 64.65334956 -76.40234375 60.9765625 C-75.73465469 60.31216156 -75.06696564 59.64776062 -74.37904358 58.96322632 C-72.2410485 56.84096816 -70.08931498 54.73323453 -67.9375 52.625 C-66.51541417 51.21441003 -65.09418061 49.80296029 -63.67382812 48.390625 C-62.29242888 47.02266737 -60.91028997 45.65545619 -59.52734375 44.2890625 C-58.57685402 43.34965317 -58.57685402 43.34965317 -57.60716248 42.39126587 C-53.21318151 38.08871931 -48.65520335 34.01676556 -44 30 C-42.77045951 28.91709096 -41.54123714 27.83382049 -40.3125 26.75 C-33.57854278 21 -33.57854278 21 -30 21 C-29.7525 20.2575 -29.505 19.515 -29.25 18.75 C-26.72045856 13.18500883 -22.63330914 11.10723019 -17.25 8.5625 C-13.12077544 6.57993595 -9.10124541 4.55448233 -5.25 2.0625 C-2 0 -2 0 0 0 Z " fill="#E4836E" transform="translate(357,66)"/>
<path d="M0 0 C0.66 1.32 1.32 2.64 2 4 C1.60844727 4.41660889 1.21689453 4.83321777 0.81347656 5.26245117 C-5.79586892 12.29717923 -12.40373638 19.33241616 -18.9375 26.4375 C-23.73910492 31.65490717 -28.58062537 36.8340164 -33.4375 42 C-34.11224365 42.71857178 -34.7869873 43.43714355 -35.48217773 44.17749023 C-38.93377212 47.84327089 -42.41555011 51.46389529 -46 55 C-44.28468421 51.03333224 -41.66487372 47.79765768 -39 44.4375 C-38.51160645 43.81834717 -38.02321289 43.19919434 -37.52001953 42.5612793 C-33.67193253 37.73346463 -29.59183903 33.1645232 -25.39453125 28.63671875 C-22.24787466 25.17180325 -19.31530292 21.55493302 -16.37109375 17.91796875 C-13.64911616 14.56818743 -10.89772063 11.24532316 -8.125 7.9375 C-7.66037354 7.37691895 -7.19574707 6.81633789 -6.71704102 6.23876953 C-4.59168065 3.71167134 -2.76986726 1.84657817 0 0 Z " fill="#DB7C8F" transform="translate(389,235)"/>
<path d="M0 0 C-3.64764494 3.64764494 -8.85684689 5.09042131 -13.5625 7.0625 C-15.15288086 7.75182617 -15.15288086 7.75182617 -16.77539062 8.45507812 C-22.96668831 11.05611065 -28.2836407 12.65466778 -35 13 C-30.51647301 10.01098201 -25.70388103 7.75322391 -20.875 5.375 C-19.86695313 4.859375 -18.85890625 4.34375 -17.8203125 3.8125 C-11.50801858 0.72176541 -7.0307061 -0.62852466 0 0 Z " fill="#D67C84" transform="translate(427,171)"/>
<path d="M0 0 C0.66 0.33 1.32 0.66 2 1 C2 3.25 2 3.25 1 6 C-4.16674019 10.12548387 -9.6240722 10.53132732 -16 10 C-12.77333979 7.47478766 -9.39568033 5.34337749 -5.875 3.25 C-4.29332031 2.29867187 -4.29332031 2.29867187 -2.6796875 1.328125 C-1.79539062 0.88984375 -0.91109375 0.4515625 0 0 Z " fill="#D7737C" transform="translate(436,161)"/>
<path d="M0 0 C0.67431641 1.78149414 0.67431641 1.78149414 1 4 C-0.09228516 5.75170898 -0.09228516 5.75170898 -1.7890625 7.49609375 C-2.40136719 8.13740234 -3.01367188 8.77871094 -3.64453125 9.43945312 C-4.29808594 10.09880859 -4.95164062 10.75816406 -5.625 11.4375 C-6.25535156 12.09298828 -6.88570313 12.74847656 -7.53515625 13.42382812 C-10.97908573 16.9930565 -14.48284323 20.50305677 -18 24 C-16.24363556 19.8710029 -13.46503188 16.59968132 -10.6875 13.125 C-10.21376953 12.52558594 -9.74003906 11.92617188 -9.25195312 11.30859375 C-6.22469444 7.49035502 -3.13282608 3.73200047 0 0 Z " fill="#D689A5" transform="translate(361,266)"/>
<path d="M0 0 C0.66 0.33 1.32 0.66 2 1 C0.46620188 2.44589269 -1.07743855 3.88134804 -2.625 5.3125 C-3.48351562 6.11300781 -4.34203125 6.91351563 -5.2265625 7.73828125 C-8.02200966 10.01794872 -10.72420916 11.51580738 -14 13 C-11.76571902 6.29715706 -7.86760142 3.71393355 -1.8046875 0.63671875 C-1.20914062 0.42660156 -0.61359375 0.21648437 0 0 Z " fill="#F19E77" transform="translate(341,74)"/>
<path d="M0 0 C-2.65554859 2.65554859 -5.28217644 3.36073753 -8.8125 4.625 C-10.03582031 5.07101563 -11.25914062 5.51703125 -12.51953125 5.9765625 C-15.59996121 6.88236794 -17.82994999 7.22945124 -21 7 C-14.53588075 2.69058717 -7.89615116 -0.87735013 0 0 Z " fill="#D68491" transform="translate(413,177)"/>
<path d="M0 0 C1.11375 0.1546875 1.11375 0.1546875 2.25 0.3125 C-3.90034169 7.79541572 -3.90034169 7.79541572 -7.75 10.3125 C-7.17805721 5.30800055 -5.48471867 0.62326349 0 0 Z " fill="#CD768E" transform="translate(369.75,258.6875)"/>
<path d="M0 0 C0.66 0.33 1.32 0.66 2 1 C1.46104623 4.7726764 0.00464642 6.68212991 -3 9 C-4.32 8.67 -5.64 8.34 -7 8 C-4.69 5.36 -2.38 2.72 0 0 Z " fill="#DA849B" transform="translate(375,250)"/>
<path d="M0 0 C0.66 0.33 1.32 0.66 2 1 C1.67 2.65 1.34 4.3 1 6 C-1.3125 6.6875 -1.3125 6.6875 -4 7 C-5.8125 5.5625 -5.8125 5.5625 -7 4 C-1.7265625 0.77734375 -1.7265625 0.77734375 0 0 Z " fill="#CC6569" transform="translate(436,161)"/>
<path d="M0 0 C1.32 0.66 2.64 1.32 4 2 C-1.75 7 -1.75 7 -4 7 C-4.33 7.66 -4.66 8.32 -5 9 C-4.5206753 4.68607774 -3.2542015 2.83430453 0 0 Z " fill="#D7666B" transform="translate(278,130)"/>
<path d="M0 0 C0.66 0.33 1.32 0.66 2 1 C2 2.65 2 4.3 2 6 C0.02 6.99 0.02 6.99 -2 8 C-2.66 6.68 -3.32 5.36 -4 4 C-2.68 2.68 -1.36 1.36 0 0 Z " fill="#36363A" transform="translate(79,580)"/>
<path d="M0 0 C2.97 0 5.94 0 9 0 C6.73814546 2.26185454 5.03016439 3.03921617 2 4 C1.01 3.67 0.02 3.34 -1 3 C-0.67 2.01 -0.34 1.02 0 0 Z " fill="#EB8188" transform="translate(418,171)"/>
<path d="M0 0 C0.66 0.33 1.32 0.66 2 1 C1.01 1.33 0.02 1.66 -1 2 C-1.33 2.99 -1.66 3.98 -2 5 C-3.87617698 6.84499398 -5.92737609 8.3683599 -8 10 C-8.66 9.67 -9.32 9.34 -10 9 C-8.71142987 7.68445979 -7.41904109 6.37265903 -6.125 5.0625 C-5.04605469 3.96615234 -5.04605469 3.96615234 -3.9453125 2.84765625 C-2 1 -2 1 0 0 Z " fill="#ED9379" transform="translate(320,90)"/>
<path d="M0 0 C0.99 0.33 1.98 0.66 3 1 C1.68 1.33 0.36 1.66 -1 2 C-0.67 1.34 -0.34 0.68 0 0 Z M-3 3 C-2.67 4.32 -2.34 5.64 -2 7 C-3.98 7.99 -3.98 7.99 -6 9 C-4.125 4.125 -4.125 4.125 -3 3 Z " fill="#F0A681" transform="translate(333,78)"/>
<path d="M0 0 C0.33 0.66 0.66 1.32 1 2 C-0.65 3.98 -2.3 5.96 -4 8 C-4.66 7.67 -5.32 7.34 -6 7 C-4.02 4.69 -2.04 2.38 0 0 Z " fill="#39393E" transform="translate(212,432)"/>
<path d="M0 0 C1.9375 0.6875 1.9375 0.6875 2.9375 2.6875 C1.2875 3.0175 -0.3625 3.3475 -2.0625 3.6875 C-2.7225 2.6975 -3.3825 1.7075 -4.0625 0.6875 C-2.0625 -0.3125 -2.0625 -0.3125 0 0 Z " fill="#D96B73" transform="translate(430.0625,166.3125)"/>
<path d="M0 0 C1.32 0.66 2.64 1.32 4 2 C2.68 3.32 1.36 4.64 0 6 C-1.125 2.25 -1.125 2.25 0 0 Z " fill="#D1778B" transform="translate(377,247)"/>
</svg>
